# Blender v2.76 (sub 0) OBJ File: 'quarto.blend'
# www.blender.org
mtllib board_play_position14.mtl
o board.017_ID376
v 2.019836 0.275591 -2.394180
v 2.014446 0.393701 -2.476401
v 2.014446 0.275591 -2.476401
v 2.019836 0.393701 -2.394180
v 2.019836 0.393701 -2.394180
v 2.019836 0.275591 -2.394180
v 2.014446 0.393701 -2.476401
v 2.014446 0.275591 -2.476401
v 2.019836 0.275591 -2.394180
v 2.014446 0.275591 -2.476401
v 2.019836 0.393701 -2.394180
v 2.014446 0.393701 -2.476401
v 2.014446 0.275591 -2.476401
v 2.014446 0.275591 -2.311959
v 2.019836 0.275591 -2.394180
v 1.998371 0.275591 -2.557216
v 1.998371 0.275591 -2.231145
v 1.971886 0.275591 -2.635241
v 1.971886 0.275591 -2.153120
v 1.935442 0.275591 -2.709141
v 1.935442 0.275591 -2.079220
v 1.889664 0.275591 -2.777652
v 1.889664 0.275591 -2.010708
v 1.835336 0.275591 -2.839602
v 1.835336 0.275591 -1.948759
v 1.773386 0.275591 -2.893930
v 1.773386 0.275591 -1.894430
v 1.704875 0.275591 -2.939708
v 1.704875 0.275591 -1.848652
v 1.630975 0.275591 -2.976152
v 1.630975 0.275591 -1.812209
v 1.552950 0.275591 -3.002637
v 1.552950 0.275591 -1.785723
v 1.472135 0.275591 -3.018712
v 1.472135 0.275591 -1.769648
v 1.389914 0.275591 -3.024101
v 1.389914 0.275591 -1.764259
v 1.307693 0.275591 -3.018712
v 1.307693 0.275591 -1.769648
v 1.226879 0.275591 -3.002637
v 1.226879 0.275591 -1.785723
v 1.148854 0.275591 -2.976152
v 1.148854 0.275591 -1.812209
v 1.074954 0.275591 -2.939708
v 1.074954 0.275591 -1.848652
v 1.006442 0.275591 -2.893930
v 1.006442 0.275591 -1.894430
v 0.944493 0.275591 -2.839602
v 0.944493 0.275591 -1.948759
v 0.890164 0.275591 -2.777652
v 0.890164 0.275591 -2.010708
v 0.844386 0.275591 -2.709141
v 0.844386 0.275591 -2.079220
v 0.807943 0.275591 -2.635241
v 0.807943 0.275591 -2.153120
v 0.781457 0.275591 -2.557216
v 0.781457 0.275591 -2.231145
v 0.765382 0.275591 -2.476401
v 0.765382 0.275591 -2.311959
v 0.759993 0.275591 -2.394180
v 0.759993 0.275591 -2.394180
v 0.765382 0.275591 -2.476401
v 0.765382 0.275591 -2.311959
v 0.781457 0.275591 -2.231145
v 0.781457 0.275591 -2.557216
v 0.807943 0.275591 -2.153120
v 0.807943 0.275591 -2.635241
v 0.844386 0.275591 -2.079220
v 0.844386 0.275591 -2.709141
v 0.890164 0.275591 -2.010708
v 0.890164 0.275591 -2.777652
v 0.944493 0.275591 -1.948759
v 0.944493 0.275591 -2.839602
v 1.006442 0.275591 -1.894430
v 1.006442 0.275591 -2.893930
v 1.074954 0.275591 -1.848652
v 1.074954 0.275591 -2.939708
v 1.148854 0.275591 -1.812209
v 1.148854 0.275591 -2.976152
v 1.226879 0.275591 -1.785723
v 1.226879 0.275591 -3.002637
v 1.307693 0.275591 -1.769648
v 1.307693 0.275591 -3.018712
v 1.389914 0.275591 -1.764259
v 1.389914 0.275591 -3.024101
v 1.472135 0.275591 -1.769648
v 1.472135 0.275591 -3.018712
v 1.552950 0.275591 -1.785723
v 1.552950 0.275591 -3.002637
v 1.630975 0.275591 -1.812209
v 1.630975 0.275591 -2.976152
v 1.704875 0.275591 -1.848652
v 1.704875 0.275591 -2.939708
v 1.773386 0.275591 -1.894430
v 1.773386 0.275591 -2.893930
v 1.835336 0.275591 -1.948759
v 1.835336 0.275591 -2.839602
v 1.889664 0.275591 -2.010708
v 1.889664 0.275591 -2.777652
v 1.935442 0.275591 -2.079220
v 1.935442 0.275591 -2.709141
v 1.971886 0.275591 -2.153120
v 1.971886 0.275591 -2.635241
v 1.998371 0.275591 -2.231145
v 1.998371 0.275591 -2.557216
v 2.014446 0.275591 -2.311959
v 2.014446 0.275591 -2.476401
v 2.019836 0.275591 -2.394180
v 1.998371 0.275591 -2.557216
v 1.971886 0.275591 -2.635241
v 1.935442 0.275591 -2.709141
v 1.889664 0.275591 -2.777652
v 1.835336 0.275591 -2.839602
v 1.773386 0.275591 -2.893930
v 1.704875 0.275591 -2.939708
v 1.630975 0.275591 -2.976152
v 1.552950 0.275591 -3.002637
v 1.472135 0.275591 -3.018712
v 1.389914 0.275591 -3.024101
v 1.307693 0.275591 -3.018712
v 1.226879 0.275591 -3.002637
v 1.148854 0.275591 -2.976152
v 1.074954 0.275591 -2.939708
v 1.006442 0.275591 -2.893930
v 0.944493 0.275591 -2.839602
v 0.890164 0.275591 -2.777652
v 0.844386 0.275591 -2.709141
v 0.807943 0.275591 -2.635241
v 0.781457 0.275591 -2.557216
v 0.765382 0.275591 -2.476401
v 0.759993 0.275591 -2.394180
v 0.765382 0.275591 -2.311959
v 0.781457 0.275591 -2.231145
v 0.807943 0.275591 -2.153120
v 0.844386 0.275591 -2.079220
v 0.890164 0.275591 -2.010708
v 0.944493 0.275591 -1.948759
v 1.006442 0.275591 -1.894430
v 1.074954 0.275591 -1.848652
v 1.148854 0.275591 -1.812209
v 1.226879 0.275591 -1.785723
v 1.307693 0.275591 -1.769648
v 1.389914 0.275591 -1.764259
v 1.472135 0.275591 -1.769648
v 1.552950 0.275591 -1.785723
v 1.630975 0.275591 -1.812209
v 1.704875 0.275591 -1.848652
v 1.773386 0.275591 -1.894430
v 1.835336 0.275591 -1.948759
v 1.889664 0.275591 -2.010708
v 1.935442 0.275591 -2.079220
v 1.971886 0.275591 -2.153120
v 1.998371 0.275591 -2.231145
v 2.014446 0.275591 -2.311959
v 2.014446 0.275591 -2.311959
v 2.014446 0.393701 -2.311959
v 2.014446 0.393701 -2.311959
v 2.014446 0.275591 -2.311959
v 2.014446 0.393701 -2.311959
v 1.998371 0.393701 -2.557216
v 1.998371 0.275591 -2.557216
v 1.998371 0.393701 -2.557216
v 1.998371 0.275591 -2.557216
v 1.998371 0.393701 -2.557216
v 1.971886 0.393701 -2.635241
v 1.971886 0.275591 -2.635241
v 1.971886 0.393701 -2.635241
v 1.971886 0.275591 -2.635241
v 1.971886 0.393701 -2.635241
v 1.935442 0.393701 -2.709141
v 1.935442 0.275591 -2.709141
v 1.935442 0.393701 -2.709141
v 1.935442 0.275591 -2.709141
v 1.935442 0.393701 -2.709141
v 1.889664 0.393701 -2.777652
v 1.889664 0.275591 -2.777652
v 1.889664 0.393701 -2.777652
v 1.889664 0.275591 -2.777652
v 1.889664 0.393701 -2.777652
v 1.835336 0.393701 -2.839602
v 1.835336 0.275591 -2.839602
v 1.835336 0.393701 -2.839602
v 1.835336 0.275591 -2.839602
v 1.835336 0.393701 -2.839602
v 1.773386 0.275591 -2.893930
v 1.773386 0.393701 -2.893930
v 1.773386 0.393701 -2.893930
v 1.773386 0.275591 -2.893930
v 1.773386 0.393701 -2.893930
v 1.704875 0.275591 -2.939708
v 1.704875 0.393701 -2.939708
v 1.704875 0.393701 -2.939708
v 1.704875 0.275591 -2.939708
v 1.704875 0.393701 -2.939708
v 1.630975 0.275591 -2.976152
v 1.630975 0.393701 -2.976152
v 1.630975 0.393701 -2.976152
v 1.630975 0.275591 -2.976152
v 1.630975 0.393701 -2.976152
v 1.552950 0.275591 -3.002637
v 1.552950 0.393701 -3.002637
v 1.552950 0.393701 -3.002637
v 1.552950 0.275591 -3.002637
v 1.552950 0.393701 -3.002637
v 1.472135 0.275591 -3.018712
v 1.472135 0.393701 -3.018712
v 1.472135 0.393701 -3.018712
v 1.472135 0.275591 -3.018712
v 1.472135 0.393701 -3.018712
v 1.389914 0.275591 -3.024101
v 1.389914 0.393701 -3.024101
v 1.389914 0.393701 -3.024101
v 1.389914 0.275591 -3.024101
v 1.389914 0.393701 -3.024101
v 1.307693 0.275591 -3.018712
v 1.307693 0.393701 -3.018712
v 1.307693 0.393701 -3.018712
v 1.307693 0.275591 -3.018712
v 1.307693 0.393701 -3.018712
v 1.226879 0.275591 -3.002637
v 1.226879 0.393701 -3.002637
v 1.226879 0.393701 -3.002637
v 1.226879 0.275591 -3.002637
v 1.226879 0.393701 -3.002637
v 1.148854 0.275591 -2.976152
v 1.148854 0.393701 -2.976152
v 1.148854 0.393701 -2.976152
v 1.148854 0.275591 -2.976152
v 1.148854 0.393701 -2.976152
v 1.074954 0.275591 -2.939708
v 1.074954 0.393701 -2.939708
v 1.074954 0.393701 -2.939708
v 1.074954 0.275591 -2.939708
v 1.074954 0.393701 -2.939708
v 1.006442 0.275591 -2.893930
v 1.006442 0.393701 -2.893930
v 1.006442 0.393701 -2.893930
v 1.006442 0.275591 -2.893930
v 1.006442 0.393701 -2.893930
v 0.944493 0.275591 -2.839602
v 0.944493 0.393701 -2.839602
v 0.944493 0.393701 -2.839602
v 0.944493 0.275591 -2.839602
v 0.944493 0.393701 -2.839602
v 0.890164 0.393701 -2.777652
v 0.890164 0.275591 -2.777652
v 0.890164 0.275591 -2.777652
v 0.890164 0.393701 -2.777652
v 0.890164 0.393701 -2.777652
v 0.844386 0.393701 -2.709141
v 0.844386 0.275591 -2.709141
v 0.844386 0.275591 -2.709141
v 0.844386 0.393701 -2.709141
v 0.844386 0.393701 -2.709141
v 0.807943 0.393701 -2.635241
v 0.807943 0.275591 -2.635241
v 0.807943 0.275591 -2.635241
v 0.807943 0.393701 -2.635241
v 0.807943 0.393701 -2.635241
v 0.781457 0.393701 -2.557216
v 0.781457 0.275591 -2.557216
v 0.781457 0.275591 -2.557216
v 0.781457 0.393701 -2.557216
v 0.781457 0.393701 -2.557216
v 0.765382 0.393701 -2.476401
v 0.765382 0.275591 -2.476401
v 0.765382 0.275591 -2.476401
v 0.765382 0.393701 -2.476401
v 0.765382 0.393701 -2.476401
v 0.759993 0.393701 -2.394180
v 0.759993 0.275591 -2.394180
v 0.759993 0.275591 -2.394180
v 0.759993 0.393701 -2.394180
v 0.759993 0.393701 -2.394180
v 0.765382 0.393701 -2.311959
v 0.765382 0.275591 -2.311959
v 0.765382 0.275591 -2.311959
v 0.765382 0.393701 -2.311959
v 0.765382 0.393701 -2.311959
v 0.781457 0.393701 -2.231145
v 0.781457 0.275591 -2.231145
v 0.781457 0.275591 -2.231145
v 0.781457 0.393701 -2.231145
v 0.781457 0.393701 -2.231145
v 0.807943 0.393701 -2.153120
v 0.807943 0.275591 -2.153120
v 0.807943 0.275591 -2.153120
v 0.807943 0.393701 -2.153120
v 0.807943 0.393701 -2.153120
v 0.844386 0.393701 -2.079220
v 0.844386 0.275591 -2.079220
v 0.844386 0.275591 -2.079220
v 0.844386 0.393701 -2.079220
v 0.844386 0.393701 -2.079220
v 0.890164 0.393701 -2.010708
v 0.890164 0.275591 -2.010708
v 0.890164 0.275591 -2.010708
v 0.890164 0.393701 -2.010708
v 0.890164 0.393701 -2.010708
v 0.944493 0.393701 -1.948759
v 0.944493 0.275591 -1.948759
v 0.944493 0.275591 -1.948759
v 0.944493 0.393701 -1.948759
v 0.944493 0.393701 -1.948759
v 1.006442 0.275591 -1.894430
v 1.006442 0.393701 -1.894430
v 1.006442 0.393701 -1.894430
v 1.006442 0.275591 -1.894430
v 1.006442 0.393701 -1.894430
v 1.074954 0.275591 -1.848652
v 1.074954 0.393701 -1.848652
v 1.074954 0.393701 -1.848652
v 1.074954 0.275591 -1.848652
v 1.074954 0.393701 -1.848652
v 1.148854 0.275591 -1.812209
v 1.148854 0.393701 -1.812209
v 1.148854 0.393701 -1.812209
v 1.148854 0.275591 -1.812209
v 1.148854 0.393701 -1.812209
v 1.226879 0.275591 -1.785723
v 1.226879 0.393701 -1.785723
v 1.226879 0.393701 -1.785723
v 1.226879 0.275591 -1.785723
v 1.226879 0.393701 -1.785723
v 1.307693 0.275591 -1.769648
v 1.307693 0.393701 -1.769648
v 1.307693 0.393701 -1.769648
v 1.307693 0.275591 -1.769648
v 1.307693 0.393701 -1.769648
v 1.389914 0.275591 -1.764259
v 1.389914 0.393701 -1.764259
v 1.389914 0.393701 -1.764259
v 1.389914 0.275591 -1.764259
v 1.389914 0.393701 -1.764259
v 1.472135 0.275591 -1.769648
v 1.472135 0.393701 -1.769648
v 1.472135 0.393701 -1.769648
v 1.472135 0.275591 -1.769648
v 1.472135 0.393701 -1.769648
v 1.552950 0.275591 -1.785723
v 1.552950 0.393701 -1.785723
v 1.552950 0.393701 -1.785723
v 1.552950 0.275591 -1.785723
v 1.552950 0.393701 -1.785723
v 1.630975 0.275591 -1.812209
v 1.630975 0.393701 -1.812209
v 1.630975 0.393701 -1.812209
v 1.630975 0.275591 -1.812209
v 1.630975 0.393701 -1.812209
v 1.704875 0.275591 -1.848652
v 1.704875 0.393701 -1.848652
v 1.704875 0.393701 -1.848652
v 1.704875 0.275591 -1.848652
v 1.704875 0.393701 -1.848652
v 1.773386 0.275591 -1.894430
v 1.773386 0.393701 -1.894430
v 1.773386 0.393701 -1.894430
v 1.773386 0.275591 -1.894430
v 1.773386 0.393701 -1.894430
v 1.835336 0.275591 -1.948759
v 1.835336 0.393701 -1.948759
v 1.835336 0.393701 -1.948759
v 1.835336 0.275591 -1.948759
v 1.835336 0.393701 -1.948759
v 1.889664 0.393701 -2.010708
v 1.889664 0.275591 -2.010708
v 1.889664 0.393701 -2.010708
v 1.889664 0.275591 -2.010708
v 1.889664 0.393701 -2.010708
v 1.935442 0.393701 -2.079220
v 1.935442 0.275591 -2.079220
v 1.935442 0.393701 -2.079220
v 1.935442 0.275591 -2.079220
v 1.935442 0.393701 -2.079220
v 1.971886 0.393701 -2.153120
v 1.971886 0.275591 -2.153120
v 1.971886 0.393701 -2.153120
v 1.971886 0.275591 -2.153120
v 1.971886 0.393701 -2.153120
v 1.998371 0.393701 -2.231145
v 1.998371 0.275591 -2.231145
v 1.998371 0.393701 -2.231145
v 1.998371 0.275591 -2.231145
v 1.998371 0.393701 -2.231145
vn 0.000000 1.000000 0.000000
vn 0.000000 -1.000000 0.000000
vn -1.000000 0.000000 0.000000
vn -0.991400 0.000000 0.130500
vn 1.000000 0.000000 0.000000
vn 0.991400 0.000000 -0.130500
vn -0.991400 0.000000 -0.130500
vn 0.991400 0.000000 0.130500
vn -0.965900 0.000000 0.258800
vn 0.965900 0.000000 -0.258800
vn -0.923900 0.000000 0.382700
vn 0.923900 0.000000 -0.382700
vn -0.866000 0.000000 0.500000
vn 0.866000 0.000000 -0.500000
vn -0.793300 0.000000 0.608800
vn 0.793300 0.000000 -0.608800
vn -0.707100 0.000000 0.707100
vn 0.707100 0.000000 -0.707100
vn -0.608800 0.000000 0.793300
vn 0.608800 0.000000 -0.793300
vn -0.500000 0.000000 0.866000
vn 0.500000 0.000000 -0.866000
vn -0.382700 0.000000 0.923900
vn 0.382700 0.000000 -0.923900
vn -0.258800 0.000000 0.965900
vn 0.258800 0.000000 -0.965900
vn -0.130500 0.000000 0.991400
vn 0.130500 0.000000 -0.991400
vn 0.000000 0.000000 1.000000
vn 0.000000 0.000000 -1.000000
vn 0.130500 0.000000 0.991400
vn -0.130500 0.000000 -0.991400
vn 0.258800 0.000000 0.965900
vn -0.258800 0.000000 -0.965900
vn 0.382700 0.000000 0.923900
vn -0.382700 0.000000 -0.923900
vn 0.500000 0.000000 0.866000
vn -0.500000 0.000000 -0.866000
vn 0.608800 0.000000 0.793300
vn -0.608800 0.000000 -0.793300
vn 0.707100 0.000000 0.707100
vn -0.707100 0.000000 -0.707100
vn 0.793300 0.000000 0.608800
vn -0.793300 0.000000 -0.608800
vn 0.866000 0.000000 0.500000
vn -0.866000 0.000000 -0.500000
vn 0.923900 0.000000 0.382700
vn -0.923900 0.000000 -0.382700
vn 0.965900 0.000000 0.258800
vn -0.965900 0.000000 -0.258800
g board.017_ID376_Color_I11
usemtl Color_I11
s off
f 13//1 14//1 15//1
f 14//1 13//1 16//1
f 14//1 16//1 17//1
f 17//1 16//1 18//1
f 17//1 18//1 19//1
f 19//1 18//1 20//1
f 19//1 20//1 21//1
f 21//1 20//1 22//1
f 21//1 22//1 23//1
f 23//1 22//1 24//1
f 23//1 24//1 25//1
f 25//1 24//1 26//1
f 25//1 26//1 27//1
f 27//1 26//1 28//1
f 27//1 28//1 29//1
f 29//1 28//1 30//1
f 29//1 30//1 31//1
f 31//1 30//1 32//1
f 31//1 32//1 33//1
f 33//1 32//1 34//1
f 33//1 34//1 35//1
f 35//1 34//1 36//1
f 35//1 36//1 37//1
f 37//1 36//1 38//1
f 37//1 38//1 39//1
f 39//1 38//1 40//1
f 39//1 40//1 41//1
f 41//1 40//1 42//1
f 41//1 42//1 43//1
f 43//1 42//1 44//1
f 43//1 44//1 45//1
f 45//1 44//1 46//1
f 45//1 46//1 47//1
f 47//1 46//1 48//1
f 47//1 48//1 49//1
f 49//1 48//1 50//1
f 49//1 50//1 51//1
f 51//1 50//1 52//1
f 51//1 52//1 53//1
f 53//1 52//1 54//1
f 53//1 54//1 55//1
f 55//1 54//1 56//1
f 55//1 56//1 57//1
f 57//1 56//1 58//1
f 57//1 58//1 59//1
f 59//1 58//1 60//1
f 61//2 62//2 63//2
f 63//2 62//2 64//2
f 62//2 65//2 64//2
f 64//2 65//2 66//2
f 65//2 67//2 66//2
f 66//2 67//2 68//2
f 67//2 69//2 68//2
f 68//2 69//2 70//2
f 69//2 71//2 70//2
f 70//2 71//2 72//2
f 71//2 73//2 72//2
f 72//2 73//2 74//2
f 73//2 75//2 74//2
f 74//2 75//2 76//2
f 75//2 77//2 76//2
f 76//2 77//2 78//2
f 77//2 79//2 78//2
f 78//2 79//2 80//2
f 79//2 81//2 80//2
f 80//2 81//2 82//2
f 81//2 83//2 82//2
f 82//2 83//2 84//2
f 83//2 85//2 84//2
f 84//2 85//2 86//2
f 85//2 87//2 86//2
f 86//2 87//2 88//2
f 87//2 89//2 88//2
f 88//2 89//2 90//2
f 89//2 91//2 90//2
f 90//2 91//2 92//2
f 91//2 93//2 92//2
f 92//2 93//2 94//2
f 93//2 95//2 94//2
f 94//2 95//2 96//2
f 95//2 97//2 96//2
f 96//2 97//2 98//2
f 97//2 99//2 98//2
f 98//2 99//2 100//2
f 99//2 101//2 100//2
f 100//2 101//2 102//2
f 101//2 103//2 102//2
f 102//2 103//2 104//2
f 103//2 105//2 104//2
f 104//2 105//2 106//2
f 105//2 107//2 106//2
f 108//2 106//2 107//2
s 1
f 1//3 2//4 3//4
f 2//4 1//3 4//3
f 5//5 6//5 7//6
f 8//6 7//6 6//5
f 155//7 4//3 1//3
f 4//3 155//7 156//7
f 157//8 158//8 5//5
f 6//5 5//5 158//8
f 3//4 160//9 161//9
f 160//9 3//4 2//4
f 7//6 8//6 162//10
f 163//10 162//10 8//6
f 161//9 165//11 166//11
f 165//11 161//9 160//9
f 162//10 163//10 167//12
f 168//12 167//12 163//10
f 166//11 170//13 171//13
f 170//13 166//11 165//11
f 167//12 168//12 172//14
f 173//14 172//14 168//12
f 171//13 175//15 176//15
f 175//15 171//13 170//13
f 172//14 173//14 177//16
f 178//16 177//16 173//14
f 176//15 180//17 181//17
f 180//17 176//15 175//15
f 177//16 178//16 182//18
f 183//18 182//18 178//16
f 180//17 185//19 181//17
f 185//19 180//17 186//19
f 187//20 182//18 188//20
f 183//18 188//20 182//18
f 186//19 190//21 185//19
f 190//21 186//19 191//21
f 192//22 187//20 193//22
f 188//20 193//22 187//20
f 191//21 195//23 190//21
f 195//23 191//21 196//23
f 197//24 192//22 198//24
f 193//22 198//24 192//22
f 196//23 200//25 195//23
f 200//25 196//23 201//25
f 202//26 197//24 203//26
f 198//24 203//26 197//24
f 201//25 205//27 200//25
f 205//27 201//25 206//27
f 207//28 202//26 208//28
f 203//26 208//28 202//26
f 206//27 210//29 205//27
f 210//29 206//27 211//29
f 212//30 207//28 213//30
f 208//28 213//30 207//28
f 211//29 215//31 210//29
f 215//31 211//29 216//31
f 217//32 212//30 218//32
f 213//30 218//32 212//30
f 216//31 220//33 215//31
f 220//33 216//31 221//33
f 222//34 217//32 223//34
f 218//32 223//34 217//32
f 221//33 225//35 220//33
f 225//35 221//33 226//35
f 227//36 222//34 228//36
f 223//34 228//36 222//34
f 226//35 230//37 225//35
f 230//37 226//35 231//37
f 232//38 227//36 233//38
f 228//36 233//38 227//36
f 231//37 235//39 230//37
f 235//39 231//37 236//39
f 237//40 232//38 238//40
f 233//38 238//40 232//38
f 236//39 240//41 235//39
f 240//41 236//39 241//41
f 242//42 237//40 243//42
f 238//40 243//42 237//40
f 245//43 240//41 241//41
f 240//41 245//43 246//43
f 247//44 248//44 243//42
f 242//42 243//42 248//44
f 250//45 246//43 245//43
f 246//43 250//45 251//45
f 252//46 253//46 247//44
f 248//44 247//44 253//46
f 255//47 251//45 250//45
f 251//45 255//47 256//47
f 257//48 258//48 252//46
f 253//46 252//46 258//48
f 260//49 256//47 255//47
f 256//47 260//49 261//49
f 262//50 263//50 257//48
f 258//48 257//48 263//50
f 265//8 261//49 260//49
f 261//49 265//8 266//8
f 267//7 268//7 262//50
f 263//50 262//50 268//7
f 270//5 266//8 265//8
f 266//8 270//5 271//5
f 272//3 273//3 267//7
f 268//7 267//7 273//3
f 275//6 271//5 270//5
f 271//5 275//6 276//6
f 277//4 278//4 272//3
f 273//3 272//3 278//4
f 280//10 276//6 275//6
f 276//6 280//10 281//10
f 282//9 283//9 277//4
f 278//4 277//4 283//9
f 285//12 281//10 280//10
f 281//10 285//12 286//12
f 287//11 288//11 282//9
f 283//9 282//9 288//11
f 290//14 286//12 285//12
f 286//12 290//14 291//14
f 292//13 293//13 287//11
f 288//11 287//11 293//13
f 295//16 291//14 290//14
f 291//14 295//16 296//16
f 297//15 298//15 292//13
f 293//13 292//13 298//15
f 300//18 296//16 295//16
f 296//16 300//18 301//18
f 302//17 303//17 297//15
f 298//15 297//15 303//17
f 300//18 305//20 301//18
f 305//20 300//18 306//20
f 307//19 303//17 308//19
f 302//17 308//19 303//17
f 306//20 310//22 305//20
f 310//22 306//20 311//22
f 312//21 307//19 313//21
f 308//19 313//21 307//19
f 311//22 315//24 310//22
f 315//24 311//22 316//24
f 317//23 312//21 318//23
f 313//21 318//23 312//21
f 316//24 320//26 315//24
f 320//26 316//24 321//26
f 322//25 317//23 323//25
f 318//23 323//25 317//23
f 321//26 325//28 320//26
f 325//28 321//26 326//28
f 327//27 322//25 328//27
f 323//25 328//27 322//25
f 326//28 330//30 325//28
f 330//30 326//28 331//30
f 332//29 327//27 333//29
f 328//27 333//29 327//27
f 331//30 335//32 330//30
f 335//32 331//30 336//32
f 337//31 332//29 338//31
f 333//29 338//31 332//29
f 336//32 340//34 335//32
f 340//34 336//32 341//34
f 342//33 337//31 343//33
f 338//31 343//33 337//31
f 341//34 345//36 340//34
f 345//36 341//34 346//36
f 347//35 342//33 348//35
f 343//33 348//35 342//33
f 346//36 350//38 345//36
f 350//38 346//36 351//38
f 352//37 347//35 353//37
f 348//35 353//37 347//35
f 351//38 355//40 350//38
f 355//40 351//38 356//40
f 357//39 352//37 358//39
f 353//37 358//39 352//37
f 356//40 360//42 355//40
f 360//42 356//40 361//42
f 362//41 357//39 363//41
f 358//39 363//41 357//39
f 360//42 365//44 366//44
f 365//44 360//42 361//42
f 362//41 363//41 367//43
f 368//43 367//43 363//41
f 366//44 370//46 371//46
f 370//46 366//44 365//44
f 367//43 368//43 372//45
f 373//45 372//45 368//43
f 371//46 375//48 376//48
f 375//48 371//46 370//46
f 372//45 373//45 377//47
f 378//47 377//47 373//45
f 376//48 380//50 381//50
f 380//50 376//48 375//48
f 377//47 378//47 382//49
f 383//49 382//49 378//47
f 381//50 156//7 155//7
f 156//7 381//50 380//50
f 382//49 383//49 157//8
f 158//8 157//8 383//49
l 9 10
l 9 11
l 11 12
l 10 12
l 10 109
l 109 110
l 110 111
l 111 112
l 112 113
l 113 114
l 114 115
l 115 116
l 116 117
l 117 118
l 118 119
l 119 120
l 120 121
l 121 122
l 122 123
l 123 124
l 124 125
l 125 126
l 126 127
l 127 128
l 128 129
l 129 130
l 130 131
l 131 132
l 132 133
l 133 134
l 134 135
l 135 136
l 136 137
l 137 138
l 138 139
l 139 140
l 140 141
l 141 142
l 142 143
l 143 144
l 144 145
l 145 146
l 146 147
l 147 148
l 148 149
l 149 150
l 150 151
l 151 152
l 152 153
l 153 154
l 154 9
l 154 159
l 159 11
l 12 164
l 109 164
l 164 169
l 110 169
l 169 174
l 111 174
l 174 179
l 112 179
l 179 184
l 113 184
l 184 189
l 114 189
l 189 194
l 115 194
l 194 199
l 116 199
l 199 204
l 117 204
l 204 209
l 118 209
l 209 214
l 119 214
l 214 219
l 120 219
l 219 224
l 121 224
l 224 229
l 122 229
l 229 234
l 123 234
l 234 239
l 124 239
l 239 244
l 125 244
l 244 249
l 126 249
l 249 254
l 127 254
l 254 259
l 128 259
l 259 264
l 129 264
l 264 269
l 130 269
l 269 274
l 131 274
l 274 279
l 132 279
l 279 284
l 133 284
l 284 289
l 134 289
l 289 294
l 135 294
l 294 299
l 136 299
l 299 304
l 137 304
l 304 309
l 138 309
l 309 314
l 139 314
l 314 319
l 140 319
l 319 324
l 141 324
l 324 329
l 142 329
l 329 334
l 143 334
l 334 339
l 144 339
l 339 344
l 145 344
l 344 349
l 146 349
l 349 354
l 147 354
l 354 359
l 148 359
l 359 364
l 149 364
l 364 369
l 150 369
l 369 374
l 151 374
l 374 379
l 152 379
l 379 384
l 153 384
l 384 159
