# Blender v2.76 (sub 0) OBJ File: 'quarto.blend'
# www.blender.org
mtllib board_play_position13.mtl
o board.002_ID256
v 0.885838 0.275591 -3.605010
v 0.885838 0.275591 -3.440568
v 0.891227 0.275591 -3.522789
v 0.869763 0.275591 -3.685825
v 0.869763 0.275591 -3.359753
v 0.843277 0.275591 -3.763849
v 0.843277 0.275591 -3.281729
v 0.806833 0.275591 -3.837749
v 0.806833 0.275591 -3.207828
v 0.761055 0.275591 -3.906261
v 0.761055 0.275591 -3.139317
v 0.706727 0.275591 -3.968211
v 0.706727 0.275591 -3.077368
v 0.644777 0.275591 -4.022539
v 0.644777 0.275591 -3.023039
v 0.576266 0.275591 -4.068317
v 0.576266 0.275591 -2.977261
v 0.502366 0.275591 -4.104760
v 0.502366 0.275591 -2.940818
v 0.424341 0.275591 -4.131246
v 0.424341 0.275591 -2.914332
v 0.343527 0.275591 -4.147321
v 0.343527 0.275591 -2.898257
v 0.261305 0.275591 -4.152710
v 0.261305 0.275591 -2.892868
v 0.179084 0.275591 -4.147321
v 0.179084 0.275591 -2.898257
v 0.098270 0.275591 -4.131246
v 0.098270 0.275591 -2.914332
v 0.020245 0.275591 -4.104760
v 0.020245 0.275591 -2.940818
v -0.053655 0.275591 -4.068317
v -0.053655 0.275591 -2.977261
v -0.122166 0.275591 -4.022539
v -0.122166 0.275591 -3.023039
v -0.184116 0.275591 -3.968211
v -0.184116 0.275591 -3.077368
v -0.238445 0.275591 -3.906261
v -0.238445 0.275591 -3.139317
v -0.284222 0.275591 -3.837749
v -0.284222 0.275591 -3.207828
v -0.320666 0.275591 -3.763849
v -0.320666 0.275591 -3.281729
v -0.347152 0.275591 -3.685825
v -0.347152 0.275591 -3.359753
v -0.363227 0.275591 -3.605010
v -0.363227 0.275591 -3.440568
v -0.368616 0.275591 -3.522789
v -0.368616 0.275591 -3.522789
v -0.363227 0.275591 -3.605010
v -0.363227 0.275591 -3.440568
v -0.347152 0.275591 -3.359753
v -0.347152 0.275591 -3.685825
v -0.320666 0.275591 -3.281729
v -0.320666 0.275591 -3.763849
v -0.284222 0.275591 -3.207828
v -0.284222 0.275591 -3.837749
v -0.238445 0.275591 -3.139317
v -0.238445 0.275591 -3.906261
v -0.184116 0.275591 -3.077368
v -0.184116 0.275591 -3.968211
v -0.122166 0.275591 -3.023039
v -0.122166 0.275591 -4.022539
v -0.053655 0.275591 -2.977261
v -0.053655 0.275591 -4.068317
v 0.020245 0.275591 -2.940818
v 0.020245 0.275591 -4.104760
v 0.098270 0.275591 -2.914332
v 0.098270 0.275591 -4.131246
v 0.179084 0.275591 -2.898257
v 0.179084 0.275591 -4.147321
v 0.261305 0.275591 -2.892868
v 0.261305 0.275591 -4.152710
v 0.343527 0.275591 -2.898257
v 0.343527 0.275591 -4.147321
v 0.424341 0.275591 -2.914332
v 0.424341 0.275591 -4.131246
v 0.502366 0.275591 -2.940818
v 0.502366 0.275591 -4.104760
v 0.576266 0.275591 -2.977261
v 0.576266 0.275591 -4.068317
v 0.644777 0.275591 -3.023039
v 0.644777 0.275591 -4.022539
v 0.706727 0.275591 -3.077368
v 0.706727 0.275591 -3.968211
v 0.761055 0.275591 -3.139317
v 0.761055 0.275591 -3.906261
v 0.806833 0.275591 -3.207828
v 0.806833 0.275591 -3.837749
v 0.843277 0.275591 -3.281729
v 0.843277 0.275591 -3.763849
v 0.869763 0.275591 -3.359753
v 0.869763 0.275591 -3.685825
v 0.885838 0.275591 -3.440568
v 0.885838 0.275591 -3.605010
v 0.891227 0.275591 -3.522789
v 0.261305 0.275591 -4.152710
v 0.179084 0.275591 -4.147321
v 0.098270 0.275591 -4.131246
v 0.020245 0.275591 -4.104760
v -0.053655 0.275591 -4.068317
v -0.122166 0.275591 -4.022539
v -0.184116 0.275591 -3.968211
v -0.238445 0.275591 -3.906261
v -0.284222 0.275591 -3.837749
v -0.320666 0.275591 -3.763849
v -0.347152 0.275591 -3.685825
v -0.363227 0.275591 -3.605010
v -0.368616 0.275591 -3.522789
v -0.363227 0.275591 -3.440568
v -0.347152 0.275591 -3.359753
v -0.320666 0.275591 -3.281729
v -0.284222 0.275591 -3.207828
v -0.238445 0.275591 -3.139317
v -0.184116 0.275591 -3.077368
v -0.122166 0.275591 -3.023039
v -0.053655 0.275591 -2.977261
v 0.020245 0.275591 -2.940818
v 0.098270 0.275591 -2.914332
v 0.179084 0.275591 -2.898257
v 0.261305 0.275591 -2.892868
v 0.343527 0.275591 -2.898257
v 0.424341 0.275591 -2.914332
v 0.502366 0.275591 -2.940818
v 0.576266 0.275591 -2.977261
v 0.644777 0.275591 -3.023039
v 0.706727 0.275591 -3.077368
v 0.761055 0.275591 -3.139317
v 0.806833 0.275591 -3.207828
v 0.843277 0.275591 -3.281729
v 0.869763 0.275591 -3.359753
v 0.885838 0.275591 -3.440568
v 0.891227 0.275591 -3.522789
v 0.885838 0.275591 -3.605010
v 0.869763 0.275591 -3.685825
v 0.843277 0.275591 -3.763849
v 0.806833 0.275591 -3.837749
v 0.761055 0.275591 -3.906261
v 0.706727 0.275591 -3.968211
v 0.644777 0.275591 -4.022539
v 0.576266 0.275591 -4.068317
v 0.502366 0.275591 -4.104760
v 0.424341 0.275591 -4.131246
v 0.343527 0.275591 -4.147321
v 0.261305 0.393701 -4.152710
v 0.179084 0.275591 -4.147321
v 0.261305 0.275591 -4.152710
v 0.179084 0.393701 -4.147321
v 0.179084 0.393701 -4.147321
v 0.261305 0.393701 -4.152710
v 0.179084 0.275591 -4.147321
v 0.261305 0.275591 -4.152710
v 0.261305 0.393701 -4.152710
v 0.179084 0.393701 -4.147321
v 0.098270 0.275591 -4.131246
v 0.098270 0.393701 -4.131246
v 0.098270 0.393701 -4.131246
v 0.098270 0.275591 -4.131246
v 0.098270 0.393701 -4.131246
v 0.020245 0.275591 -4.104760
v 0.020245 0.393701 -4.104760
v 0.020245 0.393701 -4.104760
v 0.020245 0.275591 -4.104760
v 0.020245 0.393701 -4.104760
v -0.053655 0.275591 -4.068317
v -0.053655 0.393701 -4.068317
v -0.053655 0.393701 -4.068317
v -0.053655 0.275591 -4.068317
v -0.053655 0.393701 -4.068317
v -0.122166 0.275591 -4.022539
v -0.122166 0.393701 -4.022539
v -0.122166 0.393701 -4.022539
v -0.122166 0.275591 -4.022539
v -0.122166 0.393701 -4.022539
v -0.184116 0.275591 -3.968211
v -0.184116 0.393701 -3.968211
v -0.184116 0.393701 -3.968211
v -0.184116 0.275591 -3.968211
v -0.184116 0.393701 -3.968211
v -0.238445 0.393701 -3.906261
v -0.238445 0.275591 -3.906261
v -0.238445 0.275591 -3.906261
v -0.238445 0.393701 -3.906261
v -0.238445 0.393701 -3.906261
v -0.284222 0.393701 -3.837749
v -0.284222 0.275591 -3.837749
v -0.284222 0.275591 -3.837749
v -0.284222 0.393701 -3.837749
v -0.284222 0.393701 -3.837749
v -0.320666 0.393701 -3.763849
v -0.320666 0.275591 -3.763849
v -0.320666 0.275591 -3.763849
v -0.320666 0.393701 -3.763849
v -0.320666 0.393701 -3.763849
v -0.347152 0.393701 -3.685825
v -0.347152 0.275591 -3.685825
v -0.347152 0.275591 -3.685825
v -0.347152 0.393701 -3.685825
v -0.347152 0.393701 -3.685825
v -0.363227 0.393701 -3.605010
v -0.363227 0.275591 -3.605010
v -0.363227 0.275591 -3.605010
v -0.363227 0.393701 -3.605010
v -0.363227 0.393701 -3.605010
v -0.368616 0.393701 -3.522789
v -0.368616 0.275591 -3.522789
v -0.368616 0.275591 -3.522789
v -0.368616 0.393701 -3.522789
v -0.368616 0.393701 -3.522789
v -0.363227 0.393701 -3.440568
v -0.363227 0.275591 -3.440568
v -0.363227 0.275591 -3.440568
v -0.363227 0.393701 -3.440568
v -0.363227 0.393701 -3.440568
v -0.347152 0.393701 -3.359753
v -0.347152 0.275591 -3.359753
v -0.347152 0.275591 -3.359753
v -0.347152 0.393701 -3.359753
v -0.347152 0.393701 -3.359753
v -0.320666 0.393701 -3.281729
v -0.320666 0.275591 -3.281729
v -0.320666 0.275591 -3.281729
v -0.320666 0.393701 -3.281729
v -0.320666 0.393701 -3.281729
v -0.284222 0.393701 -3.207828
v -0.284222 0.275591 -3.207828
v -0.284222 0.275591 -3.207828
v -0.284222 0.393701 -3.207828
v -0.284222 0.393701 -3.207828
v -0.238445 0.393701 -3.139317
v -0.238445 0.275591 -3.139317
v -0.238445 0.275591 -3.139317
v -0.238445 0.393701 -3.139317
v -0.238445 0.393701 -3.139317
v -0.184116 0.393701 -3.077368
v -0.184116 0.275591 -3.077368
v -0.184116 0.275591 -3.077368
v -0.184116 0.393701 -3.077368
v -0.184116 0.393701 -3.077368
v -0.122166 0.275591 -3.023039
v -0.122166 0.393701 -3.023039
v -0.122166 0.393701 -3.023039
v -0.122166 0.275591 -3.023039
v -0.122166 0.393701 -3.023039
v -0.053655 0.275591 -2.977261
v -0.053655 0.393701 -2.977261
v -0.053655 0.393701 -2.977261
v -0.053655 0.275591 -2.977261
v -0.053655 0.393701 -2.977261
v 0.020245 0.275591 -2.940818
v 0.020245 0.393701 -2.940818
v 0.020245 0.393701 -2.940818
v 0.020245 0.275591 -2.940818
v 0.020245 0.393701 -2.940818
v 0.098270 0.275591 -2.914332
v 0.098270 0.393701 -2.914332
v 0.098270 0.393701 -2.914332
v 0.098270 0.275591 -2.914332
v 0.098270 0.393701 -2.914332
v 0.179084 0.275591 -2.898257
v 0.179084 0.393701 -2.898257
v 0.179084 0.393701 -2.898257
v 0.179084 0.275591 -2.898257
v 0.179084 0.393701 -2.898257
v 0.261305 0.275591 -2.892868
v 0.261305 0.393701 -2.892868
v 0.261305 0.393701 -2.892868
v 0.261305 0.275591 -2.892868
v 0.261305 0.393701 -2.892868
v 0.343527 0.275591 -2.898257
v 0.343527 0.393701 -2.898257
v 0.343527 0.393701 -2.898257
v 0.343527 0.275591 -2.898257
v 0.343527 0.393701 -2.898257
v 0.424341 0.275591 -2.914332
v 0.424341 0.393701 -2.914332
v 0.424341 0.393701 -2.914332
v 0.424341 0.275591 -2.914332
v 0.424341 0.393701 -2.914332
v 0.502366 0.275591 -2.940818
v 0.502366 0.393701 -2.940818
v 0.502366 0.393701 -2.940818
v 0.502366 0.275591 -2.940818
v 0.502366 0.393701 -2.940818
v 0.576266 0.275591 -2.977261
v 0.576266 0.393701 -2.977261
v 0.576266 0.393701 -2.977261
v 0.576266 0.275591 -2.977261
v 0.576266 0.393701 -2.977261
v 0.644777 0.275591 -3.023039
v 0.644777 0.393701 -3.023039
v 0.644777 0.393701 -3.023039
v 0.644777 0.275591 -3.023039
v 0.644777 0.393701 -3.023039
v 0.706727 0.275591 -3.077368
v 0.706727 0.393701 -3.077368
v 0.706727 0.393701 -3.077368
v 0.706727 0.275591 -3.077368
v 0.706727 0.393701 -3.077368
v 0.761055 0.393701 -3.139317
v 0.761055 0.275591 -3.139317
v 0.761055 0.393701 -3.139317
v 0.761055 0.275591 -3.139317
v 0.761055 0.393701 -3.139317
v 0.806833 0.393701 -3.207828
v 0.806833 0.275591 -3.207828
v 0.806833 0.393701 -3.207828
v 0.806833 0.275591 -3.207828
v 0.806833 0.393701 -3.207828
v 0.843277 0.393701 -3.281729
v 0.843277 0.275591 -3.281729
v 0.843277 0.393701 -3.281729
v 0.843277 0.275591 -3.281729
v 0.843277 0.393701 -3.281729
v 0.869763 0.393701 -3.359753
v 0.869763 0.275591 -3.359753
v 0.869763 0.393701 -3.359753
v 0.869763 0.275591 -3.359753
v 0.869763 0.393701 -3.359753
v 0.885838 0.393701 -3.440568
v 0.885838 0.275591 -3.440568
v 0.885838 0.393701 -3.440568
v 0.885838 0.275591 -3.440568
v 0.885838 0.393701 -3.440568
v 0.891227 0.393701 -3.522789
v 0.891227 0.275591 -3.522789
v 0.891227 0.393701 -3.522789
v 0.891227 0.275591 -3.522789
v 0.891227 0.393701 -3.522789
v 0.885838 0.393701 -3.605010
v 0.885838 0.275591 -3.605010
v 0.885838 0.393701 -3.605010
v 0.885838 0.275591 -3.605010
v 0.885838 0.393701 -3.605010
v 0.869763 0.393701 -3.685825
v 0.869763 0.275591 -3.685825
v 0.869763 0.393701 -3.685825
v 0.869763 0.275591 -3.685825
v 0.869763 0.393701 -3.685825
v 0.843277 0.393701 -3.763849
v 0.843277 0.275591 -3.763849
v 0.843277 0.393701 -3.763849
v 0.843277 0.275591 -3.763849
v 0.843277 0.393701 -3.763849
v 0.806833 0.393701 -3.837749
v 0.806833 0.275591 -3.837749
v 0.806833 0.393701 -3.837749
v 0.806833 0.275591 -3.837749
v 0.806833 0.393701 -3.837749
v 0.761055 0.393701 -3.906261
v 0.761055 0.275591 -3.906261
v 0.761055 0.393701 -3.906261
v 0.761055 0.275591 -3.906261
v 0.761055 0.393701 -3.906261
v 0.706727 0.393701 -3.968211
v 0.706727 0.275591 -3.968211
v 0.706727 0.393701 -3.968211
v 0.706727 0.275591 -3.968211
v 0.706727 0.393701 -3.968211
v 0.644777 0.275591 -4.022539
v 0.644777 0.393701 -4.022539
v 0.644777 0.393701 -4.022539
v 0.644777 0.275591 -4.022539
v 0.644777 0.393701 -4.022539
v 0.576266 0.275591 -4.068317
v 0.576266 0.393701 -4.068317
v 0.576266 0.393701 -4.068317
v 0.576266 0.275591 -4.068317
v 0.576266 0.393701 -4.068317
v 0.502366 0.275591 -4.104760
v 0.502366 0.393701 -4.104760
v 0.502366 0.393701 -4.104760
v 0.502366 0.275591 -4.104760
v 0.502366 0.393701 -4.104760
v 0.424341 0.275591 -4.131246
v 0.424341 0.393701 -4.131246
v 0.424341 0.393701 -4.131246
v 0.424341 0.275591 -4.131246
v 0.424341 0.393701 -4.131246
v 0.343527 0.275591 -4.147321
v 0.343527 0.393701 -4.147321
v 0.343527 0.393701 -4.147321
v 0.343527 0.275591 -4.147321
v 0.343527 0.393701 -4.147321
vn 0.000000 1.000000 0.000000
vn 0.000000 -1.000000 0.000000
vn 0.000000 0.000000 1.000000
vn 0.130500 0.000000 0.991400
vn -0.130500 0.000000 -0.991400
vn 0.000000 0.000000 -1.000000
vn 0.258800 0.000000 0.965900
vn -0.258800 0.000000 -0.965900
vn 0.382700 0.000000 0.923900
vn -0.382700 0.000000 -0.923900
vn 0.500000 0.000000 0.866000
vn -0.500000 0.000000 -0.866000
vn 0.608800 0.000000 0.793300
vn -0.608800 0.000000 -0.793300
vn 0.707100 0.000000 0.707100
vn -0.707100 0.000000 -0.707100
vn 0.793300 0.000000 0.608800
vn -0.793300 0.000000 -0.608800
vn 0.866000 0.000000 0.500000
vn -0.866000 0.000000 -0.500000
vn 0.923900 0.000000 0.382700
vn -0.923900 0.000000 -0.382700
vn 0.965900 0.000000 0.258800
vn -0.965900 0.000000 -0.258800
vn 0.991400 0.000000 0.130500
vn -0.991400 0.000000 -0.130500
vn 1.000000 0.000000 0.000000
vn -1.000000 0.000000 0.000000
vn 0.991400 0.000000 -0.130500
vn -0.991400 0.000000 0.130500
vn 0.965900 0.000000 -0.258800
vn -0.965900 0.000000 0.258800
vn 0.923900 0.000000 -0.382700
vn -0.923900 0.000000 0.382700
vn 0.866000 0.000000 -0.500000
vn -0.866000 0.000000 0.500000
vn 0.793300 0.000000 -0.608800
vn -0.793300 0.000000 0.608800
vn 0.707100 0.000000 -0.707100
vn -0.707100 0.000000 0.707100
vn 0.608800 0.000000 -0.793300
vn -0.608800 0.000000 0.793300
vn 0.500000 0.000000 -0.866000
vn -0.500000 0.000000 0.866000
vn 0.382700 0.000000 -0.923900
vn -0.382700 0.000000 0.923900
vn 0.258800 0.000000 -0.965900
vn -0.258800 0.000000 0.965900
vn 0.130500 0.000000 -0.991400
vn -0.130500 0.000000 0.991400
g board.002_ID256_Color_I11
usemtl Color_I11
s off
f 1//1 2//1 3//1
f 2//1 1//1 4//1
f 2//1 4//1 5//1
f 5//1 4//1 6//1
f 5//1 6//1 7//1
f 7//1 6//1 8//1
f 7//1 8//1 9//1
f 9//1 8//1 10//1
f 9//1 10//1 11//1
f 11//1 10//1 12//1
f 11//1 12//1 13//1
f 13//1 12//1 14//1
f 13//1 14//1 15//1
f 15//1 14//1 16//1
f 15//1 16//1 17//1
f 17//1 16//1 18//1
f 17//1 18//1 19//1
f 19//1 18//1 20//1
f 19//1 20//1 21//1
f 21//1 20//1 22//1
f 21//1 22//1 23//1
f 23//1 22//1 24//1
f 23//1 24//1 25//1
f 25//1 24//1 26//1
f 25//1 26//1 27//1
f 27//1 26//1 28//1
f 27//1 28//1 29//1
f 29//1 28//1 30//1
f 29//1 30//1 31//1
f 31//1 30//1 32//1
f 31//1 32//1 33//1
f 33//1 32//1 34//1
f 33//1 34//1 35//1
f 35//1 34//1 36//1
f 35//1 36//1 37//1
f 37//1 36//1 38//1
f 37//1 38//1 39//1
f 39//1 38//1 40//1
f 39//1 40//1 41//1
f 41//1 40//1 42//1
f 41//1 42//1 43//1
f 43//1 42//1 44//1
f 43//1 44//1 45//1
f 45//1 44//1 46//1
f 45//1 46//1 47//1
f 47//1 46//1 48//1
f 49//2 50//2 51//2
f 51//2 50//2 52//2
f 50//2 53//2 52//2
f 52//2 53//2 54//2
f 53//2 55//2 54//2
f 54//2 55//2 56//2
f 55//2 57//2 56//2
f 56//2 57//2 58//2
f 57//2 59//2 58//2
f 58//2 59//2 60//2
f 59//2 61//2 60//2
f 60//2 61//2 62//2
f 61//2 63//2 62//2
f 62//2 63//2 64//2
f 63//2 65//2 64//2
f 64//2 65//2 66//2
f 65//2 67//2 66//2
f 66//2 67//2 68//2
f 67//2 69//2 68//2
f 68//2 69//2 70//2
f 69//2 71//2 70//2
f 70//2 71//2 72//2
f 71//2 73//2 72//2
f 72//2 73//2 74//2
f 73//2 75//2 74//2
f 74//2 75//2 76//2
f 75//2 77//2 76//2
f 76//2 77//2 78//2
f 77//2 79//2 78//2
f 78//2 79//2 80//2
f 79//2 81//2 80//2
f 80//2 81//2 82//2
f 81//2 83//2 82//2
f 82//2 83//2 84//2
f 83//2 85//2 84//2
f 84//2 85//2 86//2
f 85//2 87//2 86//2
f 86//2 87//2 88//2
f 87//2 89//2 88//2
f 88//2 89//2 90//2
f 89//2 91//2 90//2
f 90//2 91//2 92//2
f 91//2 93//2 92//2
f 92//2 93//2 94//2
f 93//2 95//2 94//2
f 96//2 94//2 95//2
s 1
f 145//3 146//4 147//3
f 146//4 145//3 148//4
f 149//5 150//6 151//5
f 152//6 151//5 150//6
f 148//4 155//7 146//4
f 155//7 148//4 156//7
f 157//8 149//5 158//8
f 151//5 158//8 149//5
f 156//7 160//9 155//7
f 160//9 156//7 161//9
f 162//10 157//8 163//10
f 158//8 163//10 157//8
f 161//9 165//11 160//9
f 165//11 161//9 166//11
f 167//12 162//10 168//12
f 163//10 168//12 162//10
f 166//11 170//13 165//11
f 170//13 166//11 171//13
f 172//14 167//12 173//14
f 168//12 173//14 167//12
f 171//13 175//15 170//13
f 175//15 171//13 176//15
f 177//16 172//14 178//16
f 173//14 178//16 172//14
f 180//17 175//15 176//15
f 175//15 180//17 181//17
f 182//18 183//18 178//16
f 177//16 178//16 183//18
f 185//19 181//17 180//17
f 181//17 185//19 186//19
f 187//20 188//20 182//18
f 183//18 182//18 188//20
f 190//21 186//19 185//19
f 186//19 190//21 191//21
f 192//22 193//22 187//20
f 188//20 187//20 193//22
f 195//23 191//21 190//21
f 191//21 195//23 196//23
f 197//24 198//24 192//22
f 193//22 192//22 198//24
f 200//25 196//23 195//23
f 196//23 200//25 201//25
f 202//26 203//26 197//24
f 198//24 197//24 203//26
f 205//27 201//25 200//25
f 201//25 205//27 206//27
f 207//28 208//28 202//26
f 203//26 202//26 208//28
f 210//29 206//27 205//27
f 206//27 210//29 211//29
f 212//30 213//30 207//28
f 208//28 207//28 213//30
f 215//31 211//29 210//29
f 211//29 215//31 216//31
f 217//32 218//32 212//30
f 213//30 212//30 218//32
f 220//33 216//31 215//31
f 216//31 220//33 221//33
f 222//34 223//34 217//32
f 218//32 217//32 223//34
f 225//35 221//33 220//33
f 221//33 225//35 226//35
f 227//36 228//36 222//34
f 223//34 222//34 228//36
f 230//37 226//35 225//35
f 226//35 230//37 231//37
f 232//38 233//38 227//36
f 228//36 227//36 233//38
f 235//39 231//37 230//37
f 231//37 235//39 236//39
f 237//40 238//40 232//38
f 233//38 232//38 238//40
f 235//39 240//41 236//39
f 240//41 235//39 241//41
f 242//42 238//40 243//42
f 237//40 243//42 238//40
f 241//41 245//43 240//41
f 245//43 241//41 246//43
f 247//44 242//42 248//44
f 243//42 248//44 242//42
f 246//43 250//45 245//43
f 250//45 246//43 251//45
f 252//46 247//44 253//46
f 248//44 253//46 247//44
f 251//45 255//47 250//45
f 255//47 251//45 256//47
f 257//48 252//46 258//48
f 253//46 258//48 252//46
f 256//47 260//49 255//47
f 260//49 256//47 261//49
f 262//50 257//48 263//50
f 258//48 263//50 257//48
f 261//49 265//6 260//49
f 265//6 261//49 266//6
f 267//3 262//50 268//3
f 263//50 268//3 262//50
f 266//6 270//5 265//6
f 270//5 266//6 271//5
f 272//4 267//3 273//4
f 268//3 273//4 267//3
f 271//5 275//8 270//5
f 275//8 271//5 276//8
f 277//7 272//4 278//7
f 273//4 278//7 272//4
f 276//8 280//10 275//8
f 280//10 276//8 281//10
f 282//9 277//7 283//9
f 278//7 283//9 277//7
f 281//10 285//12 280//10
f 285//12 281//10 286//12
f 287//11 282//9 288//11
f 283//9 288//11 282//9
f 286//12 290//14 285//12
f 290//14 286//12 291//14
f 292//13 287//11 293//13
f 288//11 293//13 287//11
f 291//14 295//16 290//14
f 295//16 291//14 296//16
f 297//15 292//13 298//15
f 293//13 298//15 292//13
f 295//16 300//18 301//18
f 300//18 295//16 296//16
f 297//15 298//15 302//17
f 303//17 302//17 298//15
f 301//18 305//20 306//20
f 305//20 301//18 300//18
f 302//17 303//17 307//19
f 308//19 307//19 303//17
f 306//20 310//22 311//22
f 310//22 306//20 305//20
f 307//19 308//19 312//21
f 313//21 312//21 308//19
f 311//22 315//24 316//24
f 315//24 311//22 310//22
f 312//21 313//21 317//23
f 318//23 317//23 313//21
f 316//24 320//26 321//26
f 320//26 316//24 315//24
f 317//23 318//23 322//25
f 323//25 322//25 318//23
f 321//26 325//28 326//28
f 325//28 321//26 320//26
f 322//25 323//25 327//27
f 328//27 327//27 323//25
f 326//28 330//30 331//30
f 330//30 326//28 325//28
f 327//27 328//27 332//29
f 333//29 332//29 328//27
f 331//30 335//32 336//32
f 335//32 331//30 330//30
f 332//29 333//29 337//31
f 338//31 337//31 333//29
f 336//32 340//34 341//34
f 340//34 336//32 335//32
f 337//31 338//31 342//33
f 343//33 342//33 338//31
f 341//34 345//36 346//36
f 345//36 341//34 340//34
f 342//33 343//33 347//35
f 348//35 347//35 343//33
f 346//36 350//38 351//38
f 350//38 346//36 345//36
f 347//35 348//35 352//37
f 353//37 352//37 348//35
f 351//38 355//40 356//40
f 355//40 351//38 350//38
f 352//37 353//37 357//39
f 358//39 357//39 353//37
f 355//40 360//42 356//40
f 360//42 355//40 361//42
f 362//41 357//39 363//41
f 358//39 363//41 357//39
f 361//42 365//44 360//42
f 365//44 361//42 366//44
f 367//43 362//41 368//43
f 363//41 368//43 362//41
f 366//44 370//46 365//44
f 370//46 366//44 371//46
f 372//45 367//43 373//45
f 368//43 373//45 367//43
f 371//46 375//48 370//46
f 375//48 371//46 376//48
f 377//47 372//45 378//47
f 373//45 378//47 372//45
f 376//48 380//50 375//48
f 380//50 376//48 381//50
f 382//49 377//47 383//49
f 378//47 383//49 377//47
f 381//50 147//3 380//50
f 147//3 381//50 145//3
f 150//6 382//49 152//6
f 383//49 152//6 382//49
l 97 98
l 98 99
l 99 100
l 100 101
l 101 102
l 102 103
l 103 104
l 104 105
l 105 106
l 106 107
l 107 108
l 108 109
l 109 110
l 110 111
l 111 112
l 112 113
l 113 114
l 114 115
l 115 116
l 116 117
l 117 118
l 118 119
l 119 120
l 120 121
l 121 122
l 122 123
l 123 124
l 124 125
l 125 126
l 126 127
l 127 128
l 128 129
l 129 130
l 130 131
l 131 132
l 132 133
l 133 134
l 134 135
l 135 136
l 136 137
l 137 138
l 138 139
l 139 140
l 140 141
l 141 142
l 142 143
l 143 144
l 144 97
l 97 153
l 153 154
l 98 154
l 154 159
l 99 159
l 159 164
l 100 164
l 164 169
l 101 169
l 169 174
l 102 174
l 174 179
l 103 179
l 179 184
l 104 184
l 184 189
l 105 189
l 189 194
l 106 194
l 194 199
l 107 199
l 199 204
l 108 204
l 204 209
l 109 209
l 209 214
l 110 214
l 214 219
l 111 219
l 219 224
l 112 224
l 224 229
l 113 229
l 229 234
l 114 234
l 234 239
l 115 239
l 239 244
l 116 244
l 244 249
l 117 249
l 249 254
l 118 254
l 254 259
l 119 259
l 259 264
l 120 264
l 264 269
l 121 269
l 269 274
l 122 274
l 274 279
l 123 279
l 279 284
l 124 284
l 284 289
l 125 289
l 289 294
l 126 294
l 294 299
l 127 299
l 299 304
l 128 304
l 304 309
l 129 309
l 309 314
l 130 314
l 314 319
l 131 319
l 319 324
l 132 324
l 324 329
l 133 329
l 329 334
l 134 334
l 334 339
l 135 339
l 339 344
l 136 344
l 344 349
l 137 349
l 349 354
l 138 354
l 354 359
l 139 359
l 359 364
l 140 364
l 364 369
l 141 369
l 369 374
l 142 374
l 374 379
l 143 379
l 379 384
l 144 384
l 384 153
